<svg xmlns="http://www.w3.org/2000/svg" xmlns:xlink="http://www.w3.org/1999/xlink" version="1.1" width="425.1969pt" height="425.1969pt" viewBox="0 0 425.1969 425.1969">
<g id="layer_1" data-name="">
<path transform="matrix(1,0,0,-1,0,425.1969)" d="M343.3317 160.3485V102.1133C343.3317 85.9884 336.6051 73.7855 323.1777 65.5359 309.7188 57.2666 291.7743 53.1465 269.3191 53.1465 257.7359 53.1465 247.4495 54.4243 238.4595 56.9565V90.0193C243.1848 89.1587 247.3243 88.7162 250.8372 88.7162 256.7747 88.7162 261.0737 89.7837 263.6742 91.9114 266.3002 94.0606 267.6047 97.9345 267.6047 103.5638V159.677C277.3338 151.1453 289.7365 145.0256 305.9271 145.0976 323.2026 145.1741 335.7428 153.2812 343.3317 160.3485ZM353.4018 221.5429C353.4599 221.574 353.2697 221.44 353.3267 221.472M174.0331 287.3551 174.0498 287.4078C170.2865 287.134 167.0097 286.9186 163.3615 286.5722 163.7067 284.4275 163.8686 282.2179 163.8686 279.9723 163.8686 254.615 143.187 233.9331 117.8294 233.9331 97.5603 233.9331 80.2777 247.1491 74.1591 265.4039L74.1266 265.434C61.5895 259.0033 54.451 251.6281 54.451 243.7988 54.451 235.1273 63.2069 227.0129 78.3556 220.1227L78.355 220.2962 78.3675 240.1775C82.7201 237.0356 86.7855 233.4515 91.4255 230.7518 94.8073 228.7843 98.5252 227.389 102.2732 226.2679 105.4888 225.3061 108.8529 224.8659 112.1924 224.5371 115.594 224.2023 119.0435 223.9265 122.4422 224.2809 126.4266 224.6958 130.3461 225.6945 134.1873 226.8317 137.2813 227.7473 140.4765 228.6553 143.1785 230.4193L153.1063 236.9004 153.2693 202.2854 153.1185 202.1309C159.8825 201.333 166.8801 200.6617 174.0716 200.1294L174.0331 200.0852ZM358.1447 202.4048C358.1714 202.4181 358.2048 202.3665 358.2315 202.3804 377.3636 212.5633 388.6835 225.085 388.6835 238.2996 388.6835 269.3191 327.5405 295.2575 246.3639 300.9183L246.3806 300.8775V311.0638L248.5154 317.6408C249.5117 319.6338 252.0043 321.6268 253.0006 323.6199 255.7911 325.0151 257.5128 327.2649 260.303 328.6602 262.296 329.8558 264.7165 330.1968 266.7095 331.3928 270.6956 331.592 274.6817 331.7913 278.6678 331.9906 282.0458 331.8948 283.5261 332.1054 288.5754 332.034 291.3656 332.034 295.0106 331.3928 297.8008 331.3928 301.9864 330.9942 306.3855 330.1682 310.5709 329.7696 314.3143 328.5882 319.3401 328.6888 323.7248 327.2936 328.1094 326.4965 332.2806 324.4173 336.6652 323.6199 341.0498 322.4242 345.4345 321.2283 349.8194 320.0323 350.2179 327.4067 350.6165 334.781 351.015 342.1551 347.6268 343.9488 344.2388 345.7426 340.8506 347.5363 337.263 348.9316 333.6755 350.3268 330.0883 351.7217 326.3014 353.1169 322.5146 354.5121 318.7278 355.9071 316.137 356.5052 313.7596 357.9576 311.1687 358.5557 308.3786 359.7514 305.3744 360.0924 302.5843 361.2883 300.1927 361.8862 297.8008 362.4843 295.4092 363.0821 292.8183 363.8792 290.2275 364.6766 287.6363 365.4737 285.0454 366.2711 282.4546 366.6407 279.8634 367.4381 276.4755 367.8367 273.0872 368.6627 269.699 369.0612 266.311 369.4598 262.9227 369.8583 259.5345 370.2569 255.9472 370.4564 252.3597 371.0829 248.7722 371.2825 244.9854 371.681 241.1986 371.6521 237.4118 372.0506 234.0238 371.8514 230.6356 372.0796 227.2473 371.8803 224.4572 371.681 221.6667 371.268 218.8766 371.0687 215.4883 370.6699 212.1004 370.0576 208.7121 369.6591 205.9217 368.4634 203.1316 367.2675 200.3414 366.0715 198.1491 364.4773 195.9565 362.8828 193.7642 361.2883 191.3726 359.2953 188.981 357.3023 186.5894 355.3092 184.9949 353.1169 183.4004 350.9246 181.806 348.7323 180.411 345.7426 178.1612 342.7532 176.766 339.7635 175.57 336.3755 175.229 332.9872 174.0331 329.599 174.0331 322.8228 174.0331 316.0463 174.0331 309.27L174.225 300.5827 174.3993 300.5833C169.3981 300.1819 164.4763 299.704 159.6455 299.1535 152.3633 314.9881 136.3425 326.0115 117.8294 326.0115 92.4721 326.0115 71.7902 305.3299 71.7902 279.9723 71.7902 278.8634 71.8308 277.763 71.9082 276.6728L71.9396 276.6044C49.7134 265.9252 36.5136 252.6528 36.5136 238.2996 36.5136 222.5942 52.3176 208.1823 78.4573 197.0464L78.3397 197.3358 78.2816 111.617 153.1857 111.5365 153.3838 178.3621 153.5309 178.206C160.1708 177.3454 166.9941 176.6248 173.971 176.055L174.0331 176.2492V112.557L246.3806 112.8986V176.3444L246.3038 176.3376 257.7903 177.2297C257.7291 177.1231 256.1516 180.9215 255.8597 181.5403 255.369 182.5815 254.643 184.2531 254.0792 186.3836 253.5644 188.3299 252.9575 190.364 252.7784 192.047L252.3654 195.914 251.9674 200.6813C245.9004 199.8629 252.2897 200.6612 246.5878 199.8831L246.3806 199.8944V288.106L246.3741 288.1261C319.9204 284.0474 374.9315 265.6831 374.9315 243.7988 374.9454 235.7819 368.2607 228.1484 353.3944 221.3104 353.3539 221.2917 353.5336 221.423 353.4931 221.4037L348.5041 219.037 348.4678 218.9812C341.5184 235.5919 325.0862 247.3149 306.0043 247.3149 280.6688 247.3149 260.0045 226.6506 260.0045 201.3151 260.0045 175.9793 280.6688 155.3153 306.0043 155.3153 330.6504 155.3153 350.8758 174.871 351.9584 199.2586L351.9422 199.2271C354.0095 200.2864 356.0686 201.3642 358.1447 202.4048" fill="#004068" fill-rule="evenodd"/>
</g>
</svg>
